<svg width="20" height="20" fill="none" xmlns="http://www.w3.org/2000/svg"><g clip-path="url(#clip0)"><path d="M20 4.08a8.87 8.87 0 01-2.363.619 3.93 3.93 0 001.804-2.163 8.435 8.435 0 01-2.6.947 4.202 4.202 0 00-2.995-1.239c-2.27 0-4.097 1.76-4.097 3.915 0 .31.027.609.095.893-3.409-.159-6.425-1.718-8.451-4.094A3.805 3.805 0 00.83 4.936c0 1.356.732 2.557 1.821 3.253A4.198 4.198 0 01.8 7.707v.043c0 1.902 1.421 3.481 3.285 3.845a4.277 4.277 0 01-1.075.13c-.262 0-.527-.015-.776-.068.531 1.55 2.038 2.69 3.831 2.727a8.49 8.49 0 01-5.084 1.67c-.336 0-.658-.015-.981-.055 1.816 1.118 3.969 1.757 6.29 1.757 7.545 0 11.67-5.966 11.67-11.137 0-.173-.006-.34-.015-.506A7.986 7.986 0 0020 4.08z" fill="#fff"/></g><defs><clipPath id="clip0"><path fill="#fff" d="M0 .455h20v19.091H0z"/></clipPath></defs></svg>